<mxfile host="app.diagrams.net" modified="2023-08-28T13:15:27.954Z" agent="Mozilla/5.0 (Windows NT 10.0; Win64; x64) AppleWebKit/537.36 (KHTML, like Gecko) Chrome/116.0.0.0 Safari/537.36" etag="TzbKDP6hQ2X_T-vPjQ7d" version="21.6.9" type="github" pages="2">
  <diagram name="第 1 页" id="d3vi1sWccdzA6fBNOHMS">
    <mxGraphModel dx="2389" dy="905" grid="1" gridSize="10" guides="1" tooltips="1" connect="1" arrows="1" fold="1" page="1" pageScale="1" pageWidth="827" pageHeight="1169" background="none" math="0" shadow="0">
      <root>
        <mxCell id="0" />
        <mxCell id="1" parent="0" />
        <mxCell id="i326ms37xsc7baXjEQZ6-3" value="&lt;font data-font-src=&quot;https://fonts.googleapis.com/css?family=Architects+Daughter&quot; face=&quot;Architects Daughter&quot;&gt;Kappa&lt;/font&gt;" style="line;strokeWidth=2;html=1;hachureGap=4;fontFamily=Comic Sans MS;fontSize=20;shadow=0;verticalAlign=middle;align=center;fontColor=#3783e6;" parent="1" vertex="1">
          <mxGeometry x="-760" y="100" width="680" height="10" as="geometry" />
        </mxCell>
        <mxCell id="i326ms37xsc7baXjEQZ6-13" value="" style="rounded=0;whiteSpace=wrap;html=1;strokeColor=default;dashed=1;" parent="1" vertex="1">
          <mxGeometry x="-760" y="160" width="160" height="320" as="geometry" />
        </mxCell>
        <mxCell id="i326ms37xsc7baXjEQZ6-14" value="" style="rounded=0;whiteSpace=wrap;html=1;strokeColor=default;dashed=1;" parent="1" vertex="1">
          <mxGeometry x="-580" y="200" width="230" height="240" as="geometry" />
        </mxCell>
        <mxCell id="i326ms37xsc7baXjEQZ6-15" value="" style="rounded=0;whiteSpace=wrap;html=1;strokeColor=default;dashed=1;" parent="1" vertex="1">
          <mxGeometry x="-330" y="160" width="140" height="320" as="geometry" />
        </mxCell>
        <mxCell id="i326ms37xsc7baXjEQZ6-16" value="Ingestion Layer" style="text;html=1;strokeColor=none;fillColor=none;align=center;verticalAlign=middle;whiteSpace=wrap;rounded=0;fontFamily=Architects Daughter;fontSource=https%3A%2F%2Ffonts.googleapis.com%2Fcss%3Ffamily%3DArchitects%2BDaughter;fontSize=16;fontColor=#95f702;" parent="1" vertex="1">
          <mxGeometry x="-760" y="160" width="160" height="30" as="geometry" />
        </mxCell>
        <mxCell id="i326ms37xsc7baXjEQZ6-17" value="Speed Layer" style="text;html=1;strokeColor=none;fillColor=none;align=center;verticalAlign=middle;whiteSpace=wrap;rounded=0;fontFamily=Architects Daughter;fontSource=https%3A%2F%2Ffonts.googleapis.com%2Fcss%3Ffamily%3DArchitects%2BDaughter;fontSize=16;fontColor=#ff0000;" parent="1" vertex="1">
          <mxGeometry x="-570" y="200" width="100" height="30" as="geometry" />
        </mxCell>
        <mxCell id="i326ms37xsc7baXjEQZ6-18" value="Serving Layer" style="text;html=1;strokeColor=none;fillColor=none;align=center;verticalAlign=middle;whiteSpace=wrap;rounded=0;fontFamily=Architects Daughter;fontSource=https%3A%2F%2Ffonts.googleapis.com%2Fcss%3Ffamily%3DArchitects%2BDaughter;fontSize=16;fontColor=#002aff;" parent="1" vertex="1">
          <mxGeometry x="-320" y="160" width="120" height="30" as="geometry" />
        </mxCell>
        <mxCell id="i326ms37xsc7baXjEQZ6-21" value="service1" style="rounded=1;whiteSpace=wrap;html=1;sketch=1;curveFitting=1;jiggle=2;strokeColor=default;dashed=1;glass=0;" parent="1" vertex="1">
          <mxGeometry x="-750" y="230" width="60" height="20" as="geometry" />
        </mxCell>
        <mxCell id="i326ms37xsc7baXjEQZ6-22" value="service2" style="rounded=1;whiteSpace=wrap;html=1;sketch=1;curveFitting=1;jiggle=2;strokeColor=default;dashed=1;glass=0;" parent="1" vertex="1">
          <mxGeometry x="-670" y="230" width="60" height="20" as="geometry" />
        </mxCell>
        <mxCell id="i326ms37xsc7baXjEQZ6-29" value="" style="endArrow=classicThin;html=1;rounded=0;dashed=1;exitX=0.5;exitY=1;exitDx=0;exitDy=0;entryX=0.376;entryY=0.023;entryDx=0;entryDy=0;entryPerimeter=0;endFill=1;edgeStyle=orthogonalEdgeStyle;curved=1;" parent="1" source="i326ms37xsc7baXjEQZ6-21" edge="1">
          <mxGeometry width="50" height="50" relative="1" as="geometry">
            <mxPoint x="-720" y="310" as="sourcePoint" />
            <mxPoint x="-692.4" y="296.15" as="targetPoint" />
          </mxGeometry>
        </mxCell>
        <mxCell id="i326ms37xsc7baXjEQZ6-30" value="" style="endArrow=classicThin;html=1;rounded=0;dashed=1;exitX=0.5;exitY=1;exitDx=0;exitDy=0;entryX=0.57;entryY=0.023;entryDx=0;entryDy=0;entryPerimeter=0;endFill=1;edgeStyle=orthogonalEdgeStyle;curved=1;" parent="1" source="i326ms37xsc7baXjEQZ6-22" edge="1">
          <mxGeometry width="50" height="50" relative="1" as="geometry">
            <mxPoint x="-710" y="260" as="sourcePoint" />
            <mxPoint x="-673" y="296.15" as="targetPoint" />
          </mxGeometry>
        </mxCell>
        <mxCell id="i326ms37xsc7baXjEQZ6-34" value="" style="strokeWidth=1;html=1;shape=mxgraph.flowchart.database;whiteSpace=wrap;" parent="1" vertex="1">
          <mxGeometry x="-735" y="380" width="30" height="30" as="geometry" />
        </mxCell>
        <mxCell id="i326ms37xsc7baXjEQZ6-43" value="" style="strokeWidth=1;html=1;shape=mxgraph.flowchart.direct_data;whiteSpace=wrap;fillColor=#d5e8d4;strokeColor=#82b366;fillStyle=hatch;sketch=1;curveFitting=1;jiggle=2;" parent="1" vertex="1">
          <mxGeometry x="-745" y="300" width="130" height="50" as="geometry" />
        </mxCell>
        <mxCell id="i326ms37xsc7baXjEQZ6-47" value="" style="strokeWidth=1;html=1;shape=mxgraph.flowchart.direct_data;whiteSpace=wrap;fillColor=#d5e8d4;strokeColor=#82b366;fillStyle=hatch;sketch=1;curveFitting=1;jiggle=2;" parent="1" vertex="1">
          <mxGeometry x="-543" y="300" width="130" height="50" as="geometry" />
        </mxCell>
        <mxCell id="i326ms37xsc7baXjEQZ6-48" value="" style="strokeWidth=1;html=1;shape=mxgraph.flowchart.database;whiteSpace=wrap;" parent="1" vertex="1">
          <mxGeometry x="-695" y="390" width="30" height="30" as="geometry" />
        </mxCell>
        <mxCell id="i326ms37xsc7baXjEQZ6-49" value="" style="strokeWidth=1;html=1;shape=mxgraph.flowchart.database;whiteSpace=wrap;" parent="1" vertex="1">
          <mxGeometry x="-655" y="380" width="30" height="30" as="geometry" />
        </mxCell>
      </root>
    </mxGraphModel>
  </diagram>
  <diagram id="w4jM6P_mXXEUZm0jU_z9" name="第 2 页">
    <mxGraphModel dx="1562" dy="905" grid="1" gridSize="10" guides="1" tooltips="1" connect="1" arrows="1" fold="1" page="1" pageScale="1" pageWidth="827" pageHeight="1169" math="0" shadow="0">
      <root>
        <mxCell id="0" />
        <mxCell id="1" parent="0" />
      </root>
    </mxGraphModel>
  </diagram>
</mxfile>
